<svg width="15" height="22" viewBox="0 0 15 22" fill="none" xmlns="http://www.w3.org/2000/svg">
<path d="M14.4385 14.16C14.4385 15.392 13.9912 16.47 13.0965 17.394C12.2165 18.3033 10.9552 18.9047 9.31251 19.198V21.64H6.21051V19.308C5.11051 19.2493 4.05451 19.0807 3.04251 18.802C2.04517 18.5233 1.21651 18.1787 0.556508 17.768L2.22851 13.984C2.96184 14.4093 3.78317 14.754 4.69251 15.018C5.60184 15.2673 6.47451 15.392 7.31051 15.392C8.02917 15.392 8.54251 15.326 8.85051 15.194C9.15851 15.0473 9.31251 14.8347 9.31251 14.556C9.31251 14.2333 9.10717 13.9913 8.69651 13.83C8.30051 13.6687 7.64051 13.4927 6.71651 13.302C5.52851 13.0527 4.53851 12.7887 3.74651 12.51C2.95451 12.2167 2.26517 11.7473 1.67851 11.102C1.09184 10.442 0.798508 9.55467 0.798508 8.44C0.798508 7.14933 1.26051 6.042 2.18451 5.118C3.12317 4.194 4.46517 3.60733 6.21051 3.358V0.959999H9.31251V3.314C11.0725 3.47533 12.5612 3.90067 13.7785 4.59L12.2165 8.352C10.7058 7.58933 9.27584 7.208 7.92651 7.208C6.59184 7.208 5.92451 7.53067 5.92451 8.176C5.92451 8.484 6.12251 8.71867 6.51851 8.88C6.91451 9.02667 7.56717 9.188 8.47651 9.364C9.64984 9.584 10.6398 9.84067 11.4465 10.134C12.2532 10.4127 12.9498 10.8747 13.5365 11.52C14.1378 12.1653 14.4385 13.0453 14.4385 14.16Z" fill="black"/>
</svg>
