<svg width="20" height="24" viewBox="0 0 20 24" fill="none" xmlns="http://www.w3.org/2000/svg">
<path d="M18 9.99999H14H6V7.19999C6 5.09999 7.5 3.19999 9.6 2.99999C12 2.79999 14 4.69999 14 6.99999C14 7.59999 14.4 7.99999 15 7.99999H16C16.6 7.99999 17 7.59999 17 6.99999C17 3.19999 14 0.099993 10.2 -6.96536e-06C6.3 -0.100007 3 3.09999 3 6.99999V9.99999H2C0.9 9.99999 0 10.9 0 12V19C0 21.8 2.2 24 5 24H15C17.8 24 20 21.8 20 19V12C20 10.9 19.1 9.99999 18 9.99999ZM11 17.7V19C11 19.5 10.5 20 10 20C9.5 20 9 19.5 9 19V17.7C8.4 17.4 8 16.7 8 16C8 14.9 8.9 14 10 14C11.1 14 12 14.9 12 16C12 16.7 11.6 17.4 11 17.7Z" fill="#9B9B9B"/>
</svg>
