<svg width="171" height="34" viewBox="0 0 171 34" fill="none" xmlns="http://www.w3.org/2000/svg">
<path d="M16.5762 32.6376C24.9899 32.6376 31.8106 25.817 31.8106 17.4032C31.8106 8.98953 24.9899 2.16887 16.5762 2.16887C8.16246 2.16887 1.3418 8.98953 1.3418 17.4032C1.3418 25.817 8.16246 32.6376 16.5762 32.6376Z" fill="#FF525D"/>
<path d="M16.5762 26.0396C23.1679 26.0396 28.5115 20.696 28.5115 14.1042C28.5115 7.51252 23.1679 2.16887 16.5762 2.16887C9.98445 2.16887 4.6408 7.51252 4.6408 14.1042C4.6408 20.696 9.98445 26.0396 16.5762 26.0396Z" fill="#FF6E7C"/>
<path d="M25.2598 4.53858V29.916C22.7122 31.6916 19.6815 32.6436 16.5762 32.6436C13.4709 32.6436 10.4402 31.6916 7.89258 29.916V4.53858H25.2598Z" fill="#FFD15C"/>
<path d="M11.4125 4.53858V31.7365C10.1648 31.2859 8.9814 30.6739 7.89258 29.916V4.53858H11.4125Z" fill="#EDBB4C"/>
<path d="M16.5762 33.3993C13.4385 33.4006 10.3698 32.4786 7.7524 30.7484C5.13496 29.0181 3.08445 26.5559 1.85632 23.6686C0.628176 20.7813 0.276688 17.5964 0.845635 14.5108C1.41458 11.4252 2.87882 8.5751 5.05594 6.31567C5.12536 6.24365 5.20829 6.186 5.29999 6.14603C5.39169 6.10606 5.49036 6.08454 5.59037 6.0827C5.69039 6.08086 5.78979 6.09874 5.88289 6.13531C5.976 6.17189 6.06099 6.22644 6.13301 6.29587C6.20503 6.36529 6.26268 6.44821 6.30265 6.53991C6.34262 6.63161 6.36414 6.73028 6.36598 6.8303C6.36782 6.93031 6.34994 7.02971 6.31337 7.12282C6.27679 7.21592 6.22224 7.30091 6.15282 7.37294C4.17472 9.42636 2.84722 12.0183 2.33693 14.8235C1.82664 17.6287 2.15631 20.5221 3.28455 23.1406C4.41278 25.7591 6.28933 27.986 8.67865 29.5418C11.068 31.0976 13.8636 31.913 16.7147 31.8857C19.5658 31.8583 22.3453 30.9895 24.7043 29.3881C27.0634 27.7868 28.8969 25.5243 29.9747 22.8846C31.0525 20.245 31.3266 17.3458 30.7626 14.5509C30.1986 11.756 28.8216 9.19 26.8045 7.17489C26.6658 7.03123 26.589 6.83881 26.5907 6.63909C26.5925 6.43937 26.6726 6.24833 26.8138 6.1071C26.955 5.96587 27.1461 5.88576 27.3458 5.88402C27.5455 5.88229 27.7379 5.95906 27.8816 6.09782C30.1165 8.33487 31.6382 11.1841 32.2545 14.2856C32.8708 17.3871 32.554 20.6017 31.3442 23.5232C30.1344 26.4447 28.0859 28.9422 25.4574 30.7C22.8288 32.4578 19.7383 33.3972 16.5762 33.3993Z" fill="black"/>
<path d="M25.2598 27.496C25.0577 27.496 24.864 27.4158 24.7211 27.2729C24.5783 27.1301 24.498 26.9363 24.498 26.7343V4.53858C24.498 4.33656 24.5783 4.14281 24.7211 3.99996C24.864 3.85711 25.0577 3.77686 25.2598 3.77686C25.4618 3.77686 25.6555 3.85711 25.7984 3.99996C25.9412 4.14281 26.0215 4.33656 26.0215 4.53858V26.7343C26.0215 26.9363 25.9412 27.1301 25.7984 27.2729C25.6555 27.4158 25.4618 27.496 25.2598 27.496Z" fill="black"/>
<path d="M22.6242 7.87415C23.3774 7.68365 24.0456 7.24738 24.5229 6.6344C25.0003 6.02143 25.2596 5.26675 25.2598 4.48983C25.2594 3.97652 25.1459 3.4696 24.9273 3.00518C24.7087 2.54076 24.3903 2.13026 23.9949 1.80294C23.5995 1.47562 23.1368 1.23952 22.6397 1.11147C22.1426 0.983415 21.6234 0.966557 21.1191 1.0621C18.117 1.62652 15.0361 1.62652 12.034 1.0621C11.5297 0.966572 11.0104 0.983435 10.5133 1.11148C10.0162 1.23953 9.55343 1.47562 9.15797 1.80293C8.76251 2.13024 8.44408 2.54072 8.22536 3.00514C8.00665 3.46956 7.89302 3.97649 7.89258 4.48983C7.89272 5.26665 8.1519 6.02125 8.62911 6.63421C9.10632 7.24717 9.7743 7.6835 10.5274 7.87415C14.4966 8.88265 18.655 8.88265 22.6242 7.87415Z" fill="#EDBB4C"/>
<path d="M7.89258 27.6103C7.69056 27.6103 7.49681 27.53 7.35396 27.3872C7.21111 27.2443 7.13086 27.0506 7.13086 26.8486V4.53858C7.13086 4.33656 7.21111 4.14281 7.35396 3.99996C7.49681 3.85711 7.69056 3.77686 7.89258 3.77686C8.0946 3.77686 8.28835 3.85711 8.4312 3.99996C8.57405 4.14281 8.6543 4.33656 8.6543 4.53858V26.8486C8.6543 27.0506 8.57405 27.2443 8.4312 27.3872C8.28835 27.53 8.0946 27.6103 7.89258 27.6103Z" fill="black"/>
<path d="M16.5693 9.39301C14.4685 9.39293 12.3759 9.13065 10.34 8.61225C9.25295 8.35545 8.31063 7.68122 7.71666 6.73529C7.1227 5.78936 6.9248 4.64769 7.16575 3.55704C7.40669 2.46638 8.06712 1.51433 9.00431 0.906657C9.94149 0.298981 11.0802 0.0844815 12.1742 0.309518C15.0829 0.85872 18.0687 0.85872 20.9774 0.309518C22.0721 0.082653 23.2121 0.296072 24.1507 0.903571C25.0892 1.51107 25.7507 2.46376 25.9919 3.5554C26.2332 4.64704 26.0348 5.78977 25.4397 6.73621C24.8446 7.68265 23.9007 8.35664 22.8124 8.61225C22.7148 8.6388 22.613 8.64567 22.5127 8.63245C22.4125 8.61923 22.3159 8.5862 22.2286 8.53527C22.1412 8.48433 22.0649 8.41653 22.0041 8.3358C21.9432 8.25507 21.899 8.16304 21.8741 8.06506C21.8492 7.96708 21.844 7.86513 21.8589 7.76513C21.8738 7.66514 21.9084 7.5691 21.9608 7.48263C22.0132 7.39616 22.0822 7.32098 22.164 7.26148C22.2457 7.20197 22.3385 7.15933 22.4368 7.13604C23.1322 6.96911 23.7342 6.53587 24.1133 5.92954C24.4925 5.32322 24.6184 4.59229 24.4641 3.89404C24.3097 3.1958 23.8874 2.58605 23.2881 2.19603C22.6887 1.806 21.9601 1.66687 21.2592 1.80858C18.1635 2.39311 14.9858 2.39311 11.8901 1.80858C11.1929 1.67588 10.4715 1.82005 9.87882 2.21049C9.28619 2.60093 8.869 3.20692 8.71578 3.89987C8.56256 4.59283 8.68537 5.31821 9.05815 5.92212C9.43092 6.52602 10.0243 6.96091 10.7125 7.13452C13.2455 7.77912 15.8675 8.00123 18.4729 7.79188C18.6712 7.78121 18.8658 7.84842 19.0153 7.97919C19.1648 8.10995 19.2573 8.29394 19.2731 8.49192C19.2889 8.68991 19.2267 8.88623 19.0999 9.03905C18.973 9.19186 18.7915 9.28908 18.594 9.30999C17.9196 9.36534 17.2447 9.39301 16.5693 9.39301Z" fill="black"/>
<path d="M25.2598 20.9841C25.2301 20.9841 25.2004 20.9841 25.1699 20.9788C22.2643 20.6473 19.4491 19.7625 16.8763 18.3722C14.8207 17.2494 12.9462 15.8231 11.3157 14.1416C8.4852 11.2364 7.25121 8.5376 7.20246 8.42411C7.12576 8.24112 7.12348 8.03542 7.19612 7.85078C7.26875 7.66614 7.41057 7.51712 7.59139 7.43544C7.77222 7.35377 7.97778 7.34587 8.16434 7.41343C8.35089 7.481 8.50373 7.61869 8.59032 7.79721C8.6025 7.82311 9.78926 10.4038 12.4499 13.1201C13.9733 14.6832 15.7229 16.0085 17.6403 17.0513C20.0329 18.3382 22.6489 19.1575 25.3481 19.4652C25.5422 19.4865 25.7207 19.5816 25.8468 19.7307C25.9728 19.8798 26.0367 20.0717 26.0254 20.2666C26.0141 20.4616 25.9283 20.6447 25.7858 20.7782C25.6433 20.9117 25.455 20.9854 25.2598 20.9841Z" fill="black"/>
<path d="M16.5762 18.0888C16.4091 18.0889 16.2467 18.034 16.1139 17.9327C15.981 17.8314 15.8852 17.6892 15.8411 17.528C15.7971 17.3669 15.8072 17.1957 15.87 17.0409C15.9327 16.8861 16.0446 16.7562 16.1885 16.6712C22.0598 13.2085 24.5399 7.85129 24.5674 7.79721C24.6505 7.61307 24.8034 7.4695 24.9924 7.39807C25.1814 7.32665 25.391 7.33322 25.5751 7.41635C25.7593 7.49949 25.9028 7.65236 25.9743 7.84135C26.0457 8.03034 26.0391 8.23997 25.956 8.42411C25.8493 8.661 23.2694 14.265 16.9677 17.9829C16.8492 18.0532 16.7139 18.0898 16.5762 18.0888Z" fill="black"/>
<path d="M16.5853 5.7101C14.4014 5.71083 12.2261 5.43675 10.1107 4.8943C9.91505 4.8438 9.74747 4.71764 9.64483 4.54357C9.54219 4.36951 9.51291 4.1618 9.56341 3.96615C9.61392 3.77049 9.74008 3.60291 9.91414 3.50027C10.0882 3.39764 10.2959 3.36835 10.4916 3.41885C14.4896 4.44247 18.681 4.44247 22.6791 3.41885C22.8747 3.36835 23.0824 3.39764 23.2565 3.50027C23.4306 3.60291 23.5567 3.77049 23.6072 3.96615C23.6577 4.1618 23.6284 4.36951 23.5258 4.54357C23.4232 4.71764 23.2556 4.8438 23.0599 4.8943C20.9445 5.4367 18.7692 5.71078 16.5853 5.7101Z" fill="black"/>
<path d="M19.898 30.2382C19.8481 30.238 19.7984 30.2329 19.7495 30.223C19.7007 30.2131 19.653 30.1986 19.6071 30.1796C19.5611 30.1603 19.5169 30.1368 19.4753 30.1095C19.4337 30.0819 19.3949 30.0502 19.3595 30.015C19.3241 29.9798 19.2925 29.941 19.265 29.8992C19.2374 29.8578 19.2139 29.8136 19.195 29.7675C19.1759 29.7215 19.1614 29.6738 19.1515 29.625C19.1322 29.5269 19.1322 29.426 19.1515 29.328C19.1615 29.279 19.176 29.231 19.195 29.1848C19.2141 29.1389 19.2375 29.0951 19.265 29.0537C19.2925 29.012 19.3241 28.9732 19.3595 28.938C19.3951 28.9027 19.4339 28.8709 19.4753 28.8427C19.5169 28.8154 19.5611 28.7919 19.6071 28.7727C19.7936 28.6955 20.0032 28.6955 20.1898 28.7728C20.3763 28.8501 20.5245 28.9982 20.6019 29.1848C20.6208 29.231 20.6353 29.279 20.6453 29.328C20.6646 29.426 20.6646 29.5269 20.6453 29.625C20.6354 29.6738 20.6209 29.7215 20.6019 29.7675C20.5829 29.8136 20.5595 29.8578 20.5318 29.8992C20.4624 30.0038 20.3682 30.0895 20.2576 30.1486C20.147 30.2078 20.0235 30.2386 19.898 30.2382Z" fill="black"/>
<path d="M20.2789 27.2675C20.077 27.2668 19.8835 27.1866 19.7404 27.0443C19.705 27.0091 19.6733 26.9703 19.6459 26.9285C19.6184 26.8872 19.5949 26.8433 19.5758 26.7975C19.557 26.7515 19.5424 26.7038 19.5324 26.6551C19.5222 26.6049 19.5171 26.5539 19.5172 26.5027C19.517 26.4516 19.5221 26.4005 19.5324 26.3504C19.5422 26.3016 19.5568 26.2539 19.5758 26.208C19.5948 26.1618 19.6182 26.1177 19.6459 26.0762C19.6733 26.0345 19.705 25.9957 19.7404 25.9604C19.8292 25.8727 19.938 25.808 20.0574 25.7718C20.1769 25.7355 20.3033 25.7289 20.4259 25.7524C20.4747 25.762 20.5225 25.7766 20.5683 25.7959C20.6609 25.8339 20.745 25.8898 20.8159 25.9604C20.851 25.9958 20.8827 26.0346 20.9104 26.0762C20.938 26.1177 20.9615 26.1618 20.9804 26.208C20.9995 26.2539 21.014 26.3016 21.0239 26.3504C21.0339 26.4006 21.0387 26.4516 21.0383 26.5027C21.0386 26.5539 21.0338 26.6049 21.0239 26.6551C21.0138 26.7038 20.9993 26.7515 20.9804 26.7975C20.942 26.8896 20.8862 26.9735 20.8159 27.0443C20.7801 27.0794 20.7414 27.1112 20.7001 27.1395C20.6584 27.1669 20.6143 27.1904 20.5683 27.2096C20.5223 27.2286 20.4746 27.2431 20.4259 27.253C20.3775 27.2626 20.3282 27.2675 20.2789 27.2675Z" fill="black"/>
<path d="M22.6402 28.7529C22.5904 28.7526 22.5406 28.7478 22.4917 28.7384C22.4429 28.7283 22.3952 28.7135 22.3492 28.6942C22.3032 28.6751 22.259 28.6516 22.2175 28.6241C22.1339 28.569 22.0624 28.4975 22.0072 28.4139C21.9796 28.3724 21.9561 28.3283 21.9372 28.2821C21.9181 28.2362 21.9036 28.1884 21.8937 28.1397C21.8734 28.0417 21.8734 27.9406 21.8937 27.8426C21.9036 27.7938 21.9181 27.7461 21.9372 27.7002C21.9561 27.654 21.9796 27.6099 22.0072 27.5684C22.0624 27.4848 22.1339 27.4133 22.2175 27.3582C22.259 27.3306 22.3032 27.3072 22.3492 27.2881C22.3952 27.269 22.4429 27.2545 22.4917 27.2447C22.59 27.2249 22.6912 27.2249 22.7895 27.2447C22.8383 27.2546 22.886 27.2691 22.932 27.2881C22.9778 27.3072 23.0217 27.3306 23.063 27.3582C23.1047 27.3856 23.1435 27.4172 23.1788 27.4526C23.2141 27.488 23.246 27.5268 23.274 27.5684C23.3016 27.6099 23.3251 27.654 23.344 27.7002C23.3631 27.7461 23.3776 27.7938 23.3875 27.8426C23.4068 27.9407 23.4068 28.0416 23.3875 28.1397C23.3776 28.1884 23.3631 28.2362 23.344 28.2821C23.3251 28.3283 23.3016 28.3724 23.274 28.4139C23.246 28.4555 23.2141 28.4942 23.1788 28.5297C23.1435 28.565 23.1047 28.5967 23.063 28.6241C23.0217 28.6516 22.9778 28.6751 22.932 28.6942C22.886 28.7134 22.8383 28.7282 22.7895 28.7384C22.7403 28.7478 22.6903 28.7526 22.6402 28.7529Z" fill="black"/>
<path d="M10.1777 16.7565C10.1278 16.7564 10.0781 16.7513 10.0292 16.7413C9.98043 16.7315 9.93273 16.7169 9.88676 16.6979C9.84062 16.679 9.79648 16.6555 9.75498 16.6278C9.67141 16.5727 9.59989 16.5012 9.54475 16.4176C9.51708 16.3761 9.4936 16.3319 9.47467 16.2858C9.45528 16.24 9.44073 16.1922 9.43125 16.1434C9.42125 16.0945 9.41615 16.0447 9.41602 15.9948C9.41597 15.9437 9.42107 15.8926 9.43125 15.8425C9.44095 15.7937 9.45549 15.746 9.47467 15.7C9.49377 15.6542 9.51724 15.6103 9.54475 15.569C9.57218 15.5273 9.60383 15.4885 9.6392 15.4532C9.67464 15.4179 9.71341 15.386 9.75498 15.358C9.79648 15.3304 9.84062 15.3069 9.88676 15.288C9.93273 15.2689 9.98043 15.2544 10.0292 15.2445C10.1272 15.2247 10.2282 15.2247 10.3263 15.2445C10.375 15.2544 10.4227 15.2689 10.4687 15.288C10.5149 15.3069 10.559 15.3304 10.6005 15.358C10.6421 15.386 10.6808 15.4179 10.7163 15.4532C10.7516 15.4885 10.7833 15.5273 10.8107 15.569C10.8382 15.6103 10.8617 15.6542 10.8808 15.7C10.9 15.746 10.9145 15.7937 10.9242 15.8425C10.9344 15.8926 10.9395 15.9437 10.9395 15.9948C10.9393 16.0447 10.9342 16.0945 10.9242 16.1434C10.9147 16.1922 10.9002 16.24 10.8808 16.2858C10.8619 16.3319 10.8384 16.3761 10.8107 16.4176C10.7556 16.5012 10.6841 16.5727 10.6005 16.6278C10.559 16.6555 10.5149 16.679 10.4687 16.6979C10.4239 16.7157 10.3775 16.7292 10.3301 16.7383C10.2801 16.7496 10.229 16.7557 10.1777 16.7565Z" fill="black"/>
<path d="M10.1777 19.2702C10.1278 19.2701 10.0781 19.265 10.0292 19.255C9.98043 19.2452 9.93273 19.2306 9.88676 19.2116C9.84062 19.1926 9.79648 19.1692 9.75498 19.1415C9.71326 19.1141 9.67446 19.0824 9.6392 19.047C9.604 19.0116 9.57236 18.9729 9.54475 18.9313C9.51723 18.8897 9.49377 18.8455 9.47467 18.7995C9.45528 18.7536 9.44073 18.7059 9.43125 18.657C9.41095 18.5588 9.41095 18.4574 9.43125 18.3592C9.44073 18.3103 9.45528 18.2626 9.47467 18.2168C9.53151 18.0771 9.62921 17.9579 9.75498 17.8748C9.79648 17.8471 9.84062 17.8236 9.88676 17.8047C9.93273 17.7856 9.98043 17.7711 10.0292 17.7613C10.1272 17.7415 10.2282 17.7415 10.3263 17.7613C10.375 17.7711 10.4227 17.7856 10.4687 17.8047C10.5149 17.8236 10.559 17.8471 10.6005 17.8748C10.7255 17.9588 10.823 18.0777 10.8808 18.2168C10.9002 18.2626 10.9147 18.3103 10.9242 18.3592C10.9445 18.4574 10.9445 18.5588 10.9242 18.657C10.9147 18.7059 10.9002 18.7536 10.8808 18.7995C10.8617 18.8455 10.8382 18.8897 10.8107 18.9313C10.7831 18.9729 10.7515 19.0116 10.7163 19.047C10.681 19.0824 10.6422 19.1141 10.6005 19.1415C10.559 19.1692 10.5149 19.1926 10.4687 19.2116C10.4239 19.2293 10.3775 19.2429 10.3301 19.2519C10.2801 19.2632 10.229 19.2693 10.1777 19.2702Z" fill="black"/>
<path d="M48.7728 18.368L48.0688 19.424V28H44.9968V5.56799H48.0688V14.336L53.9568 5.56799H57.4448L50.5008 15.712L58.8208 28H55.2368L48.7728 18.368Z" fill="#2C2C2C"/>
<path d="M70.09 26.88C69.322 27.3707 68.4473 27.744 67.466 28C66.4847 28.256 65.5033 28.384 64.522 28.384C62.9433 28.384 61.6847 28 60.746 27.232C59.8287 26.4427 59.37 25.2693 59.37 23.712V17.152C59.37 15.424 59.9033 14.08 60.97 13.12C62.058 12.16 63.4873 11.68 65.258 11.68C67.0287 11.68 68.4047 12.16 69.386 13.12C70.3887 14.0587 70.89 15.3707 70.89 17.056V21.664L62.314 22.144V23.392C62.314 24.1387 62.5273 24.7147 62.954 25.12C63.402 25.504 64.0207 25.696 64.81 25.696C65.9833 25.696 67.3807 25.2693 69.002 24.416L70.09 26.88ZM67.946 17.024C67.946 16.1493 67.6687 15.5093 67.114 15.104C66.5593 14.6773 65.93 14.464 65.226 14.464C64.3087 14.464 63.594 14.72 63.082 15.232C62.57 15.7227 62.314 16.3733 62.314 17.184V19.424L67.946 19.104V17.024Z" fill="#2C2C2C"/>
<path d="M85.6165 22.976C85.6165 24.064 85.3925 24.9813 84.9445 25.728C84.4965 26.4747 83.8885 27.04 83.1205 27.424C82.4378 27.7653 81.7445 28.0107 81.0405 28.16C80.3578 28.3093 79.6218 28.384 78.8325 28.384C78.0432 28.384 76.9552 28.3093 75.5685 28.16L73.8085 28V5.59999H76.7205V12.288C77.6805 11.8827 78.7258 11.68 79.8565 11.68C80.9658 11.68 81.9792 11.8933 82.8965 12.32C84.7098 13.152 85.6165 14.688 85.6165 16.928V22.976ZM82.7365 17.6C82.7365 16.5333 82.4272 15.7653 81.8085 15.296C81.2112 14.8053 80.4538 14.56 79.5365 14.56C79.0032 14.56 78.4805 14.6347 77.9685 14.784C77.4565 14.912 77.0405 15.0827 76.7205 15.296V25.472C77.2965 25.6 77.9365 25.664 78.6405 25.664C79.7712 25.664 80.7312 25.4613 81.5205 25.056C82.3312 24.6293 82.7365 23.9573 82.7365 23.04V17.6Z" fill="#2C2C2C"/>
<path d="M100.317 28C98.0125 28.2347 96.3485 28.352 95.3245 28.352C93.0845 28.352 91.3032 27.936 89.9805 27.104C88.6578 26.272 87.9965 24.768 87.9965 22.592V19.936C87.9965 17.824 88.7325 16.4053 90.2045 15.68C90.9085 15.3387 91.7405 15.168 92.7005 15.168C93.5538 15.168 94.4178 15.296 95.2925 15.552C96.1672 15.808 96.8712 16.1067 97.4045 16.448C97.4045 15.552 97.0632 14.88 96.3805 14.432C95.6978 13.984 94.7165 13.76 93.4365 13.76L93.6605 11.712C95.7085 11.712 97.2125 12.0427 98.1725 12.704C99.1538 13.344 99.7512 14.112 99.9645 15.008C100.199 15.904 100.317 17.056 100.317 18.464V28ZM97.4045 19.36C96.8498 19.04 96.1778 18.752 95.3885 18.496C94.5992 18.24 93.8632 18.112 93.1805 18.112C91.6658 18.112 90.9085 18.8267 90.9085 20.256V22.368C90.9085 24.5653 92.3165 25.664 95.1325 25.664C95.8152 25.664 96.5725 25.6 97.4045 25.472V19.36Z" fill="#2C2C2C"/>
<path d="M114.992 22.976C114.992 24.064 114.768 24.9813 114.32 25.728C113.872 26.4747 113.264 27.04 112.496 27.424C111.813 27.7653 111.12 28.0107 110.416 28.16C109.733 28.3093 108.997 28.384 108.208 28.384C107.418 28.384 106.33 28.3093 104.944 28.16L103.184 28V5.59999H106.096V12.288C107.056 11.8827 108.101 11.68 109.232 11.68C110.341 11.68 111.354 11.8933 112.272 12.32C114.085 13.152 114.992 14.688 114.992 16.928V22.976ZM112.112 17.6C112.112 16.5333 111.802 15.7653 111.184 15.296C110.586 14.8053 109.829 14.56 108.912 14.56C108.378 14.56 107.856 14.6347 107.344 14.784C106.832 14.912 106.416 15.0827 106.096 15.296V25.472C106.672 25.6 107.312 25.664 108.016 25.664C109.146 25.664 110.106 25.4613 110.896 25.056C111.706 24.6293 112.112 23.9573 112.112 23.04V17.6Z" fill="#2C2C2C"/>
<path d="M118.684 5.59999H121.948L126.332 22.72L130.652 5.59999H133.98L128.124 28H124.572L118.684 5.59999Z" fill="#2C2C2C"/>
<path d="M137.652 5.59999H145.14C147.295 5.59999 148.895 6.28265 149.94 7.64799C151.007 9.01332 151.54 10.7733 151.54 12.928C151.54 15.1253 151.146 17.056 150.356 18.72C149.588 20.384 147.946 21.216 145.428 21.216H140.564V28H137.652V5.59999ZM144.724 18.4C145.94 18.4 146.836 18.112 147.412 17.536C147.988 16.9387 148.33 16.288 148.436 15.584C148.564 14.8587 148.628 13.984 148.628 12.96C148.628 11.296 148.287 10.1333 147.604 9.47198C146.922 8.81065 145.919 8.47999 144.596 8.47999H140.564V18.4H144.724Z" fill="#2C2C2C"/>
<path d="M158.127 11.488V28H155.215V5.59999H158.127L168.015 22.048V5.59999H170.959V28H168.015L158.127 11.488Z" fill="#2C2C2C"/>
</svg>
